<?xml version="1.0" encoding="utf-8"?>
<!-- Generator: Adobe Illustrator 24.0.2, SVG Export Plug-In . SVG Version: 6.00 Build 0)  -->
<svg version="1.1" id="Layer_1" xmlns="http://www.w3.org/2000/svg" xmlns:xlink="http://www.w3.org/1999/xlink" x="0px" y="0px"
	 viewBox="0 0 288 560" style="enable-background:new 0 0 288 560;" xml:space="preserve">
<style type="text/css">
	.st0{fill:#12AF92;}
</style>
<g>
	<path class="st0" d="M228.79,182.06c8.77,7.04,16.38,15.11,22.26,24.74c-0.55,2.41,0.61,3.69,2.82,4.28l0.02,0.04
		c0.84,1.21,1.06,3.01-0.19,3.4c-4.42,1.39-4.06,5.1-4.65,8.43c-1.78,4.81-1.6,9.51-0.47,14.55c1.64,7.31,0.39,14.45-4.46,20.49
		c-1.68,2.09-2.09,4.88-4.09,6.72c-1.51,1.32-2.4-0.03-3.42-0.77c-0.56,0.34-0.77,0.88-1.02,1.42c-0.36,0.84-0.77,1.64-1.26,2.39
		c-3.08,5.57-8.27,9.84-9.76,16.39c-0.45,1.99-1.93,3.43-4.06,3.94c-1.8,0.25-3.54,0.67-5.04,1.77c-1.95,1.07-3.74,2.55-6.15,2.52
		c-1.47-1.11-2.93-1.21-4.38,0.05c-0.44,0.15-0.89,0.19-1.35,0.14c-2.03-0.83-2.42-2.13-1.13-3.92c0.64-0.7,1.36-1.33,2.03-1.99
		c6.5-5.95,7.2-9.59,3.19-16.49c-0.59-1.02-1.16-2.21-2.26-2.58c-6.55-2.2-13.03-4.85-20.22-3.11c-3.26,0.79-3.09,4.05-4.69,6.03
		c-0.9,0.98-1.95,2.08-3.32,1.44c-1.2-0.56-0.86-1.96-0.73-3.1c0.13-1.14,0.11-2.28,0.13-3.42c0.81-4.14-0.32-7.3-4.03-9.76
		c-3.13-2.08-4.28-5.68-5.88-9c-3.77-7.84-9.1-14.37-17.48-17.78c-1.76-0.69-3.5-1.42-5.21-2.24c-0.62-0.39-1.11-0.89-1.44-1.55
		c-0.52-1.6,0.51-2.63,1.38-3.72c0.73-0.9,0.91-2.07,1.51-3.04c0.75-1.1,1.88-1.31,3.09-1.29c0.66,0,1.32,0.03,1.92,0.24
		c0.22,0.05,0.45,0.34,0.61,0.33c0.26-0.02,0.19-0.21-0.21-0.26c-0.95-0.43-1.92-0.3-2.88-0.36c-5.23-2.28-11.21-0.39-16.38-3
		c-1.45-0.73-3.19-0.93-4.27-2.36c-1.81-2.9-1.71-5.87-0.36-8.89c0.21-0.44,0.5-0.83,0.83-1.19c1.73-1.45,3.77-1.75,5.94-1.58
		c1.43,0.11,2.97,0.56,3.82-1.2c0.76-1.87,1.86-3.51,3.1-5.08c1.4-1.77,3.08-2.61,5.19-1.47c2.5,1.35,4.25,0.91,5.85-1.51
		c1.4-2.12,3.67-3.29,6.07-4.13c1.89-0.72,3.79-1.02,5.75-0.32c3.82,0.76,4.9,3.61,5.31,6.98c0.35,0.85,0.66,1.71,0.58,2.65
		c-0.17,0.65-0.52,1.21-0.93,1.73c-1.1,1.19-1.39,2.37,0.06,3.53c2.79,1.74,4.8,3.95,4.82,7.5c0.01,2.12,1.36,2.35,3.04,1.79
		c1.84-1.43-0.43-3.35,0.55-4.88c0.85-2.93,3.25-3.56,5.83-3.8c2.32-0.21,4.65-0.25,6.92-0.87c2.49-0.68,4.92-1.53,5.44-4.45
		c0.51-2.87-0.78-5.18-2.83-7.1c-0.98-0.92-2.26-1.4-3.32-2.2c-1.72-1.62-3.64-3-5.44-4.52c-0.66-0.74-1.12-1.57-1.12-2.6
		c0.37-1.89,1.94-2.67,3.33-3.63c0.43-0.24,0.88-0.43,1.34-0.58c3.36-1.26,5.65,0.25,7.51,2.91c0.93,2.44,3.01,2.79,5.22,2.76
		c3.44-0.05,6.86,0.35,10.31,0.27c2.22,0.11,4.19,0.93,6,2.18c2.03,1.25,3.83,3.23,6.61,2.11c0.07-0.03,0.12-0.3,0.07-0.42
		c-0.12-0.31-0.38-0.53-0.7-0.69c-1.61-0.91-3.35-1.67-3.77-3.76c-0.06-1.3,0.4-2.38,1.36-3.24c1.02-0.45,1.83,0,2.59,0.61
		c1.2,1.58,2.52,2.95,4.76,2.75C227.69,181.41,228.31,181.57,228.79,182.06z"/>
	<path class="st0" d="M184.24,403.05c-6.56,2.34-13.09,4.82-20.18,5.05c-2.04,0.09-4.11,0.04-6.06,0.8
		c-16.29,2.2-32.31,0.96-48.05-3.79c-0.31-0.36-0.4-0.77-0.26-1.2c0.88-0.84,0.6-0.98-0.52-1.28c-1.56-0.42-3.32-1.11-1.71-3.34
		c1.13-0.66,2.39-0.7,3.65-0.76c7.1,0.81,13.99,2.87,21.14,3.54c5.99,0.57,11.96,0.33,17.94,0.34c0.82,0,1.62-0.19,2.27-1.3
		c-1.99-2.07-4.53-3.39-7.12-4.23c-7.65-2.45-14.22-6.74-19.36-12.63c-4.04-4.62-7.78-8.84-14.3-9.54c-1.85-0.2-2.99-2-3.89-3.65
		c-1.92-3.5-4.11-6.89-5.09-10.81c-0.85-3.37-2.98-5.85-5.06-8.47c-4.17-5.28-3.28-9.11,2.88-11.7c6.27-2.63,12.67-5,19.14-7.07
		c2.59-0.83,4.39-1.94,5.57-4.41c2.1-4.41,5.59-6.93,10.6-7.07c2.26-0.07,4.14-1.13,5.96-2.31c1.29-1.41,3.85-0.21,4.79-2.37
		c0.54-1.97,1.96-3.23,3.8-3.46c5.47-0.66,10.82-3.2,16.4-1.87c2.71,0.65,1.8-1.65,2.74-2.36c0.9-0.89,1.8-0.43,2.71-0.02
		c1.8,1.31,3.82,2.29,5.6,3.64c0.75,0.67,1.63,1.42,1.83,2.33c2.04,9.06,8.08,16.87,8.33,26.49c0.04,1.37,0.12,2.79-0.83,3.79
		c-6.21,6.5-9.1,15.76-18.18,20.01c-5.68,2.66-3.87,8.64-2.75,13.42c1.18,5.05,1.68,10.12,1.81,15.26
		c-0.14,2.05-2.26,3.99-0.31,6.12c3.12,0.03,5.93-1.96,9.12-1.31c1.14,0.21,2.18,0.66,3.17,1.24
		C181.23,401.37,183.42,401.23,184.24,403.05z"/>
	<path class="st0" d="M14.9,267.74c0.19-8.13,2.01-15.96,4.29-23.71c0.85-0.89,1.85-1.51,3.1-1.66c0.5-0.02,0.97,0.06,1.44,0.24
		c0.92,0.54,1.28,1.43,1.5,2.41c0.45,1.31-0.38,3.32,1.5,3.8c1.35,0.35,2.33-1.02,3.32-1.87c0.76-0.65,1.31-1.49,1.87-2.31
		c4.66-6.82,5.65-7.32,13.45-5.58c2.73,0.61,5.67-1.14,8.21,0.87c4.54,3.8,4.78,10.11,8.5,14.45c1.81,2.11,3.25,4.6,4.91,6.88
		c0.88,1.21,2.11,2.46,2.01,3.93c-0.83,12.03,1.48,25.09-11.41,33.13c-3.15,1.97-5.99,3.26-9.7,2.48c-2.75-0.58-5.6-0.65-8.39-1.03
		c-3.33-0.45-5.19,1.03-4.86,4.48c0.33,3.41-0.5,6.57-1.46,9.76c-0.84,2.77-1.11,5.71,0.31,8.27c4.15,7.47,4.72,15.8,6.17,23.93
		c-1.96,0.8-2.7,3.13-4.76,3.83c-11.28-16.15-17.15-34.3-19.79-53.63c-0.92-6.76-1.32-13.56-0.89-20.39
		C15.17,273.32,14.04,270.44,14.9,267.74z"/>
	<path class="st0" d="M219.96,178.06c-0.37,1.09-0.74,2.19-1.11,3.28c-1.42,0.09-2.1-0.79-2.59-1.94c-0.63-3.4-2.92-4.06-5.9-3.55
		c-6.72-2.76-12.96-6.48-19.45-9.69c-1.78-1.69-3.85-2.79-6.3-3.14c-0.43-0.11-0.84-0.26-1.24-0.44c-2.35-1.56-4.94-1.7-7.63-1.25
		c-6.56-0.86-12.95-2.53-19.54-3.31c-8.72-1.03-16.83-0.39-23.8,5.57c-1.31,0.79-3.05,0.89-3.89,2.44
		c-0.41,3.18,4.17,5.06,2.24,8.62c-1.67,2.66-3.93,4.86-5.71,7.45c-2.1,3.06-5.43,4.28-8.96,4.71c-2.78,0.34-5.47,0.54-8.13,1.74
		c-3.2,1.44-5.53-0.55-5.46-3.61c0.12-5.39-1.98-8.4-6.99-10.43c-2.56-1.03-5.13-3.01-6.79-5.6c1.18-2.73-3.35-2.3-2.65-4.77
		c10.02-6.18,21.15-9.36,32.54-11.56c19.96-3.86,39.84-3.76,59.44,2.31c1.08,1.37,2.77,0.51,4.07,1.11
		c0.96,0.36,1.92,0.72,2.89,1.07c4.14,1.93,7.79,5.13,12.74,4.99c1.42,0.7,2.84,1.41,4.25,2.11c1.12,0.9,2.57,1.14,3.76,1.89
		c2.44,1.58,4.88,3.16,7.31,4.74c1.13,1.54,3.05,1.85,4.48,2.9C218.93,174.77,220.56,175.83,219.96,178.06z"/>
	<path class="st0" d="M23.07,243.02c-0.33,0-0.67,0-1,0c-1.27-0.59-1.14-2.05-1.86-2.99c-0.23-0.58-0.03-0.95,0.56-1.11
		c1.8-1.37,1.54-3.56,2.15-5.4c5.87-17.19,15.81-31.82,28.57-44.54c2.38-2.37,4.08-5.55,7.33-7.03c1.55-0.35,2.47-1.8,3.95-2.26
		c1.43,0.34,1.95-0.93,2.88-1.53c2.16-1.39,3.37-0.29,3.98,1.87c-0.4,3.02-3.04,4-5.06,5.55c-2.38,1.19-4.72,2.44-6.01,4.96
		c-4.48,4.7-7.81,10.31-12.05,15.19c-1.12,1.28-1.61,2.5-0.27,3.9c0.82,1.94,2.78,2.5,4.33,3.56c1.46,1.08,5.45,0.72,2.48,4.33
		c-1,1.17-1.97,2.36-3.08,3.44c-2.09,2.06-0.04,3.4,0.86,4.94c0.61,3.15-0.52,4.07-3.44,2.67c-3.02-2.98-6.17,0-9.23-0.19
		c-1.13,0.94-1.95,2.23-3.29,2.94c-0.38,0.22-0.77,0.38-1.19,0.52c-0.58,0.19-1.17,0.34-1.71,0.56c-0.49,0.32-0.49,0.84-0.52,1.35
		c-0.06,0.18-0.13,0.35-0.19,0.53c-0.23,0.34-0.49,0.63-0.78,0.91c-1.44,1.12-1.88,2.82-2.59,4.38c-0.66,1.26-1.47,2.37-2.93,2.77
		c-1.4,0.06-1.11-1.34-1.78-2.12C23.76,241.31,23.85,242.2,23.07,243.02z"/>
	<path class="st0" d="M34.89,350.03c0.43-2.55,0.75-5.25,4.47-3.17c2.03-0.07,2.81,1.56,3.73,2.88
		c7.87,11.23,17.27,20.97,28.29,29.14c1.32,0.98,2.78,1.87,3.18,3.66c-0.31,2.68,1.54,1.69,2.83,1.64
		c4.27,0.79,7.54,3.41,10.89,5.89c1.66,1.5,3.6,2.46,5.75,3.04c1.04,0.35,2.08,0.7,3.09,1.14c1.48,0.96,3.14,1.47,4.83,1.9
		c0.85,0.3,1.68,0.66,2.51,1.02c1.03,0.74,2.9,0.72,2.55,2.74c1.01,3.43,4.48,0.52,6.19,2.36c-0.7,1.36-1.97,1.46-3.2,1.65
		c-2.6,1.5-4.63-1.41-7.1-0.91l0.07,0.03c-1.87-1.16-3.9-1.83-6.08-2.05c-4.03-0.72-7.59-2.55-10.95-4.79
		c-1.47-1.94-3.88-2.22-5.84-3.29C61.29,382.57,46.1,368.39,34.89,350.03z"/>
	<path class="st0" d="M258.99,324.76c1.01-1.12,1.66-2.37,1.4-3.95c0.08-0.9,0.45-1.68,0.91-2.43c1.07-1.42,1.87-2.94,1.86-4.78
		c0.08-0.45,0.23-0.87,0.41-1.29c1.4-1.96,0.97-4.32,1.37-6.49c0.07-0.44,0.19-0.87,0.32-1.3c0.5-1.67,1.11-3.32,0.78-5.12
		c-0.12-0.96-0.08-1.9,0.13-2.84c0.46-1.48,0.48-3.04,0.96-4.52c0.82-6.1,0.17-12.23,0.37-18.34c-0.08-2.31,0.3-4.64-0.36-6.92
		c-0.38-1.38-0.49-2.8-0.8-4.19c-0.09-0.44-0.12-0.89-0.12-1.34c0.14-1.96-0.37-3.82-0.92-5.67c-0.15-0.41-0.25-0.83-0.34-1.26
		c-0.43-2.1,0.09-4.37-1.22-6.3c-0.21-0.4-0.36-0.82-0.46-1.25c-0.09-0.68,0.02-1.32,0.42-1.9c0.53-0.42,1.13-0.54,1.79-0.4
		c1.23,1.46,0.74-0.66,1.3-0.63c0.4-0.21,0.75-0.14,1.06,0.17c1.72,3.21,2.06,6.84,3.09,10.27c1.2,1.39-0.22,3.35,1.02,4.73
		c0.26,0.28,0.32,0.59,0.16,0.93c0.11,2.04,0.06,4.11,0.81,6.06c0.06,0.65,0.11,1.3,0.17,1.95c0.53,4.58,0.3,9.18,0.34,13.77
		c-0.02,3.44,0.12,6.89-0.34,10.32c-0.07,0.98-0.15,1.97-0.22,2.95c-0.24,0.29-0.53,0.51-0.86,0.66c-0.81,0.86-0.69,2.15-1.49,3.06
		c-0.99,1.12,0.17,0.71,0.65,0.74c0.4,0.08,0.71,0.27,0.96,0.58c-0.06,0.32-0.11,0.63-0.17,0.95c-1.25,1.39,0.19,3.36-1.03,4.75
		c-1.33,5.08-2.67,10.16-4,15.25c-0.98,2.04-1.75,4.19-2.93,6.13c-2.17,8.13-6.28,15.31-10.91,22.22c-1.91-1.13-2.47-3.04-2.96-5
		c-0.1-0.99,0.13-1.89,0.72-2.69c1.07-1.1,2-2.3,2.3-3.87"/>
	<path class="st0" d="M220.02,385.08c-4.24,3.64-8.9,6.62-14.02,8.86c-1.33,0.63-2.82,0.93-4.02,1.86
		c-2.29,1.12-4.21,3.13-7.04,2.99c-1.1-0.28-2.34-0.39-2.43-1.94c0.03-1.19,0.29-2.33,0.78-3.42c1.4-2.25,3.86-2.98,6.02-4.1
		c8.35-4.31,16.24-9.33,23.7-15.02c1.66-0.7,3.14-1.67,4.37-3c1.07-0.91,2.14-1.85,3.71-1.7c1.62,0.55,3.33,1.04,2.86,3.37
		c-1.72,1.65-3.45,3.31-5.17,4.96c-1.41,0.84-2.51,2.05-3.83,3.01c-0.37,0.33-0.75,0.66-1.12,0.99
		C222.39,382.78,220.23,382.75,220.02,385.08z"/>
	<path class="st0" d="M265.91,245.02c-0.64,0-1.27,0-1.91,0c-1.82-0.88-2.01-2.99-3.25-4.32c-3.2-5.24-4.91-11.17-7.6-16.66
		c-1.39-2.83-2.95-2.73-5.22-2.03c-1.21-2.8,3.39-5.22,0.06-8.38c2.36-0.52,6.41,2.96,5.91-2.51c7.17,9.9,11.06,21.18,13.93,32.9
		l-0.44,0l-0.44,0C266.31,244.06,266.38,244.82,265.91,245.02z"/>
	<path class="st0" d="M233.95,372.98c-0.53-1.67-2.45-1.92-3.32-3.25c0.24-0.38,0.53-0.7,0.88-0.98c1.36-1.07,3.07-1.87,3.04-3.99
		c0.13-0.67,0.5-1.18,1-1.62c1.32-0.83,1.91-2.19,2.55-3.52c0.53-0.95,1.35-1.6,2.22-2.22c1.11-0.68,1.46-1.83,1.87-2.96
		c0.47-1.02,1.21-1.74,2.28-2.1c1.62-0.29,1.84-1.45,1.74-2.81c0.1-0.95,0.46-1.72,1.44-2.03c2.85,0.46,0.5-2.09,1.53-2.69
		c0.32-0.67,0.8-1.13,1.54-1.27c0.78,1.93,1.57,3.86,2.35,5.79c-0.43,0.87-0.86,1.73-1.29,2.6c-1.62,0.85-1.67,2.81-2.84,3.98
		c-1.32,1.68-2.63,3.36-3.95,5.03c-0.97,1.33-2.05,2.56-3.04,3.87C238.99,367.25,237.91,371.53,233.95,372.98z"/>
	<path class="st0" d="M69.14,180.32c-0.87-1.6-1.75-3.02-3.43-0.68c-0.72,1-1.57,1.77-2.68,0.39c-0.35-0.23-0.47-0.46-0.35-0.69
		c0.12-0.23,0.24-0.34,0.36-0.34c1.04-1.98,3.26-2.58,4.75-4.03c1.82-1.73,5.43-0.89,6.11-4.25c2.8-2.01,5.82-3.62,9.03-4.88
		c1.88,0.39,4.16-0.28,5.28,2.05c0.33,1.46-0.52,2.26-1.64,2.91c-1.43,0.58-3.11,0.64-4.19,1.99c-1.43,1.22-3.05,2.06-4.91,2.41
		c-1.25,0.47-3.48-0.51-3.21,2.2C73.1,179.32,71.6,180.66,69.14,180.32z"/>
	<path class="st0" d="M193.84,393.55c0.09,1.23,0.33,2.5-0.88,3.39c-0.46,1-0.56,2.07-0.69,3.14c-2.67,0.99-5.35,1.98-8.02,2.97
		c-1.24-1.06-3.58,0.12-4.25-2.09c-0.65-2.36,1.44-2.88,2.65-4C186.2,395.28,189.62,393.08,193.84,393.55z"/>
	<path class="st0" d="M197.72,162.09c-6.09,3.04-8.92-2.25-12.74-4.99C189.56,157.9,193.84,159.48,197.72,162.09z"/>
	<path class="st0" d="M219.96,178.06c-0.74-3.9-6.08-3.4-6.91-7.22c4.48,1.08,7.76,3.95,10.76,7.23c-0.43,0.68-1.03,1.06-1.86,0.99
		C221.29,178.72,220.62,178.39,219.96,178.06z"/>
	<path class="st0" d="M253.87,211.08c-0.75,0.04-1.13,2.19-2.12,0.51c-0.99-1.66-3.55-2.46-3.3-4.58c0.22-1.89,1.81,1.46,2.59-0.21
		C252.42,207.95,253.32,209.4,253.87,211.08z"/>
	<path class="st0" d="M272.93,282c0.05-4.68,0.09-9.36,0.14-14.05c1.31,4.63,0.87,9.34,0.71,14.04
		C273.5,282.46,273.22,282.48,272.93,282z"/>
	<path class="st0" d="M88.25,168.16c-1.55-1.29-4.02-0.47-5.32-2.32c1.04-0.56,2.08-1.12,3.12-1.68c0.63,1.62,4.46,0.99,2.9,4.14
		l-0.4,0.22L88.25,168.16z"/>
	<path class="st0" d="M221.95,179.05c0.4-0.75,1.09-0.95,1.86-0.99c0.38,0.33,0.76,0.67,1.15,1c0.8,0.91,2.66,1.11,2,2.99
		C223.94,183.29,222.58,181.78,221.95,179.05z"/>
	<path class="st0" d="M272.93,282c0.28,0,0.56,0,0.84,0c0.13,3.37,0.44,6.76-0.71,10.04C271.94,288.71,273.46,285.34,272.93,282z"/>
	<path class="st0" d="M73.9,170.72c0.35,4.84-4,2.94-6.11,4.25C69.83,173.55,71.86,172.14,73.9,170.72z"/>
	<path class="st0" d="M263.98,327.11c-0.41-2.7,1.4-4.35,2.93-6.13C266.83,323.45,266.39,325.75,263.98,327.11z"/>
	<path class="st0" d="M220.02,385.08c-1.33-4.2,1.28-3.63,3.82-3.14C223.11,383.65,221.58,384.39,220.02,385.08z"/>
	<path class="st0" d="M20.22,240.04c1.22,0.62,1.86,1.61,1.86,2.99c-0.69,1.12-1.81,0.98-2.88,1
		C18.56,242.44,20.17,241.44,20.22,240.04z"/>
	<path class="st0" d="M102.91,403.02c2.6-1.51,4.64,1.29,7.1,0.91c-0.02,0.4-0.05,0.79-0.07,1.19
		C107.4,405.08,105.08,404.29,102.91,403.02z"/>
	<path class="st0" d="M272.9,266.01c-1.01-1.92-2.26-3.81-0.81-6.06C273.21,261.85,272.97,263.94,272.9,266.01z"/>
	<path class="st0" d="M14.9,267.74c0.3,2.8,0.76,5.62-0.69,8.28C14.02,273.22,13.71,270.42,14.9,267.74z"/>
	<path class="st0" d="M80.11,392.91c2.47,0.16,4.8,0.59,5.84,3.29C83.87,395.33,81.78,394.5,80.11,392.91z"/>
	<path class="st0" d="M192.26,400.08c-2.11-1.57-0.51-2.31,0.69-3.14c0.66,0.62,1.32,1.24,1.98,1.85
		C194.03,399.2,193.61,400.61,192.26,400.08z"/>
	<path class="st0" d="M96.9,400.99c2.7-1.32,4.37,0.42,6.08,2.05C100.74,402.98,98.81,402.02,96.9,400.99z"/>
	<path class="st0" d="M157.99,408.91c1.92-1.01,3.81-2.28,6.06-0.8C162.15,409.22,160.06,409.02,157.99,408.91z"/>
	<path class="st0" d="M63.04,179c0,0.34-0.01,0.69-0.01,1.03c-1.15,1.18-2.25,2.49-4.2,1.93C60.07,180.75,61.06,179.17,63.04,179z"
		/>
	<path class="st0" d="M22.93,233.53c0.06,2.11,0.78,4.48-2.15,5.4C21.31,237.06,21.64,235.1,22.93,233.53z"/>
	<path class="st0" d="M224.95,380.95c0.74-1.69,1.51-3.33,3.83-3.01C227.98,379.55,226.81,380.68,224.95,380.95z"/>
	<path class="st0" d="M272.11,300.04c-0.39-0.02-0.79-0.03-1.18-0.05c-1.23-1.98,0.69-3.32,1-4.99c0.31-0.01,0.61-0.01,0.92-0.01
		C272.93,296.72,273.18,298.47,272.11,300.04z"/>
	<path class="st0" d="M248.94,355.91c0.92-1.35-0.42-4.3,2.84-3.98C251.42,353.67,250.56,355.07,248.94,355.91z"/>
	<path class="st0" d="M226.95,182.06c-0.67-1-1.33-1.99-2-2.99c1.87,0.24,3.02,1.4,3.83,3
		C228.17,182.06,227.56,182.06,226.95,182.06z"/>
	<path class="st0" d="M241.94,364.82c0.16-1.97,1.45-3.03,3.04-3.87C244.67,362.79,243.54,363.98,241.94,364.82z"/>
	<path class="st0" d="M271.93,259.02c-1.61-1.3-0.83-3.12-1.02-4.73C272.28,255.64,271.98,257.36,271.93,259.02z"/>
	<path class="st0" d="M201.97,395.8c0.84-1.69,2.33-1.99,4.02-1.86C204.86,395,203.71,396.03,201.97,395.8z"/>
	<path class="st0" d="M182.09,156.02c-1.7,0.88-3.08,0.62-4.07-1.11C179.49,154.87,180.93,154.95,182.09,156.02z"/>
	<path class="st0" d="M270.91,305.73c0.17-1.62-0.58-3.44,1.03-4.75C271.99,302.65,272.3,304.38,270.91,305.73z"/>
	<path class="st0" d="M205.74,166.09c-1.61,0.08-3-0.29-3.76-1.89C203.64,164.01,204.85,164.72,205.74,166.09z"/>
	<path class="st0" d="M204.39,292.17c-2.76,1.1-3.25,5.49-7.16,4.92c-2.6,0.64-5.48,0.73-7.09,3.42c-1.03,2.97-2.25,5.75-6.06,5.83
		c-1.37-1-0.98-2.5-1.12-3.85c-0.11-0.84,0.04-1.63,0.4-2.39c-0.03-2.45,0.23-4.8,2.5-6.35l-0.08,0.05c2.24-1.1,4.99,0.85,7.07-1.19
		c0.45-2.46,0.3-4.82-0.45-7.25c-0.4-1.3-3.62-2.89-0.52-4.09c1.98-0.77,4.76-0.33,5.56,2.58c0.46,1.66,1.21,2.99,2.57,4
		c0.69,1.17,2.2,0.18,2.97,1.14C202.02,290.69,202.76,291.63,204.39,292.17z"/>
	<path class="st0" d="M193.96,179.3c3.93,3.39,9.19,0.74,13.39,2.95c0.83,0.44,1.87,0.5,2.81,0.73c-4.19-0.09-8.37-0.2-12.56-0.25
		C195.29,182.71,193.86,181.84,193.96,179.3z"/>
	<path class="st0" d="M215.96,185.11c2.01,0.39,4.01,0.92,6.04,1.12c2.62,0.27,1.55-1.01,0.73-2.09c1.17,0.01,2.63,0.03,2.5,1.54
		c-0.11,1.37-1.39,2.28-2.82,2.23C219.94,187.83,217.67,187.08,215.96,185.11z"/>
	<path class="st0" d="M181.01,177.98c2.06,1.57,2.94-2.59,5-1.04c-1.08,1.17-2.17,2.35-3.25,3.52c-1.88-0.78-4.15,0.37-5.86-1.2
		c0.12-0.19,0.23-0.39,0.35-0.58C178.33,177.51,179.88,178.88,181.01,177.98z"/>
	<path class="st0" d="M179.99,270.01c-0.01,1.78-1.11,3.06-2.66,2.77c-1.7-0.31-1.14-2.17-0.91-3.37c0.31-1.58,0.24-3.33,1.45-4.64
		c0.4,2.16-0.08,4.25-0.58,6.34C178.57,271.48,179.04,270.18,179.99,270.01z"/>
	<path class="st0" d="M127.92,201.99c1.24-2.45,3.46-2.27,5.6-1.93c1.85,0.29,3.61,0.34,5.33-0.49c-0.63,1.89-2.11,2.61-3.8,1.93
		C132.51,200.47,130.28,201.7,127.92,201.99z"/>
	<path class="st0" d="M163.95,187.71c1.84-0.72,3.63-1.19,4.89,0.99c-0.86,1.7,0.21,3.66-0.74,5.35
		C165.84,192.51,168.45,187.78,163.95,187.71z"/>
	<path class="st0" d="M127.88,211.37c-2.72-3.16-2.43-6.29,0.08-9.41C127.46,205.1,126.85,208.23,127.88,211.37z"/>
	<path class="st0" d="M140.91,227.11c-0.95-0.33-3.03,0.47-2.67-0.98c0.51-2.06,2.87-1.01,4.45-1.24c0.45,0.4,0.9,0.8,1.35,1.2
		c-0.08,0.2-0.16,0.4-0.25,0.6C142.95,227.63,141.99,227.75,140.91,227.11z"/>
	<path class="st0" d="M238.91,264.98c-1.06,1.53-0.27,3.77-1.93,5.08c-1.13-0.68-0.99-2.03-1.56-3c-0.08-0.46-0.05-0.92,0.08-1.37
		c0.7-1.45,0.28-3.23,1.35-4.57C239.05,261.59,237.2,264.23,238.91,264.98z"/>
	<path class="st0" d="M188.98,185.95c-3.04,0.48-4.4-1.14-4.85-3.89C186.02,183.01,187.94,183.93,188.98,185.95z"/>
	<path class="st0" d="M168.1,194.04c0.17-1.79-0.41-3.69,0.74-5.34c-0.67,2.61,2.55,5.07,0.28,7.74
		C169.54,195.32,168.54,194.8,168.1,194.04z"/>
	<path class="st0" d="M208.96,291.86c-1.27,1.07-2.57,1.67-4,0.26C205.97,286.94,207.6,291.4,208.96,291.86z"/>
	<path class="st0" d="M149.29,227.84c-1.1,0.12-1.14,2.62-2.88,1.29c-0.99-0.79-2.81-0.95-2.21-2.93l-0.16-0.1
		C146.05,225.91,147.79,226.5,149.29,227.84z"/>
	<path class="st0" d="M143.95,219.06c0.57-2.19,0.57-2.19,5.02-1.91c0.24,0.15,0.34,0.32,0.3,0.52c-0.05,0.21-0.1,0.31-0.17,0.31
		c-1.15,0.26-2.53-0.12-3.32,1.17C145.15,219.61,144.54,219.62,143.95,219.06z"/>
	<path class="st0" d="M236.85,261.11c0.42,1.78,0.66,3.54-0.82,5.01c-0.65-0.12-1.05-0.51-1.18-1.16
		C234.9,263.35,235,261.78,236.85,261.11z"/>
	<path class="st0" d="M176.73,210.93c0.25-1.71-0.19-3.58,1.2-5.03c0.21,1.44,0.51,2.88,0.62,4.32
		C178.71,212.29,177.44,210.94,176.73,210.93z"/>
	<path class="st0" d="M151.85,217.31c1.17,0.48,2.13,1.18,2.68,2.52c-1.75,0.43-2.62-0.82-3.67-1.67
		C151.05,217.71,151.37,217.42,151.85,217.31z"/>
	<path class="st0" d="M220.12,287.06c-1.52,1.21-3.16,2.09-5.17,2.04C216.25,287.35,218.06,286.89,220.12,287.06z"/>
	<path class="st0" d="M167.83,197.04c-0.79,1.57-1.23,3.17-0.57,4.91C165.24,200.06,165.03,198.38,167.83,197.04z"/>
	<path class="st0" d="M234.85,264.96c0.39,0.39,0.79,0.77,1.18,1.16c-0.09,0.31-0.1,0.62-0.02,0.93c0.07,1-0.23,1.48-1.28,0.91
		c-0.29-0.38-0.58-0.75-0.87-1.13C234.19,266.21,234.52,265.58,234.85,264.96z"/>
	<path class="st0" d="M213.81,287.6c-0.73,0.1-1.27,0.03-1.01-0.61c0.15-0.37,0.69-0.7,1.1-0.8c0.36-0.08,0.8,0.21,1.2,0.34
		C214.63,286.94,214.15,287.33,213.81,287.6z"/>
	<path class="st0" d="M202.97,289c-1.12-0.04-2.32,0.14-2.97-1.14c1.6-0.12,3.2-0.24,4.81-0.36
		C204.69,288.61,203.91,288.91,202.97,289z"/>
	<path class="st0" d="M239.97,255.78c-0.31,0.44-0.56,1.13-1.04,1.38c-0.59,0.32-0.8-0.31-0.6-0.76c0.26-0.56,0.7-1.04,1.07-1.55
		C239.55,255.1,239.7,255.34,239.97,255.78z"/>
	<path class="st0" d="M143.95,219.06c0.61,0.03,1.22,0.05,1.83,0.08c0.57,1.24,0.28,2.22-0.9,2.92
		C144.57,221.06,144.26,220.06,143.95,219.06z"/>
	<path class="st0" d="M151.85,217.31c-0.33,0.28-0.66,0.57-0.98,0.85c-0.59-0.06-1.17-0.13-1.76-0.19c-0.1-0.27-0.14-0.54-0.13-0.83
		c0-0.36,0-0.71,0.01-1.07C150.23,215.81,150.97,216.72,151.85,217.31z"/>
	<path class="st0" d="M177.81,310.78c-0.32,0.78-0.64,1.55-0.95,2.33c-2.1-0.36-3.94-1.15-5.06-3.11c0.94-3.85,3.01-2.9,5.25-1.23
		C177.48,309.37,177.61,310.09,177.81,310.78z"/>
	<path class="st0" d="M176.91,310.1c-1.65-2.81-3.35-3.18-5.12-0.1c-0.49-0.31-0.99-0.61-1.48-0.92c1.69-4.14,5.06-1.47,7.67-1.9
		C178.52,308.48,177.85,309.34,176.91,310.1z"/>
	<path class="st0" d="M167.01,394.93c-0.15,2.34-0.62,4.67,0.08,7C164.18,399.63,165.25,397.28,167.01,394.93z"/>
	<path class="st0" d="M176.81,399.84c1.9-1.14,3.96-1.74,6.17-1.87c-1,1-1.99,2-2.99,2.99
		C178.92,400.59,177.87,400.21,176.81,399.84z"/>
	<path class="st0" d="M104.02,397.86c2.61-0.1,4.91,0.91,7.18,1.99c-1.39,0.02-2.78,0.04-4.18,0.06
		C106.02,399.23,105.02,398.55,104.02,397.86z"/>
	<path class="st0" d="M142.56,319.8c0.83-2,2.58-1.88,4.28-1.89C145.94,319.74,143.96,319.12,142.56,319.8z"/>
	<path class="st0" d="M146.63,319.71c-0.67,2.04-1.41,2.75-3.03,3.07C143.9,321.24,144.83,320.67,146.63,319.71z"/>
	<path class="st0" d="M173.97,354.01c-0.31-0.78-0.67-1.29-0.55-1.48c0.31-0.47,0.79-1,1.3-1.13c0.53-0.14,0.69,0.48,0.46,0.91
		C174.93,352.82,174.54,353.24,173.97,354.01z"/>
	<path class="st0" d="M24.97,242.01c0.05,1.14,0.77,2.46-0.84,3.15c-0.06-0.86-0.22-1.67-1.06-2.14c0-0.98,0-1.95,0-3.63
		C23.97,240.63,24.47,241.32,24.97,242.01z"/>
	<path class="st0" d="M132.05,164.92c1.02,2.82,1.02,2.82-3.28,2.74c1.81,1.86,3.73,3.7,1.24,6.4c-0.1-1.56,0.34-3.31-1.53-4.25
		c-2.29-1.15-1.95-3.03-1.33-4.97C128.79,164.37,130.43,163.99,132.05,164.92z"/>
	<path class="st0" d="M216.77,179.53c-1.98-1.39-3.95-2.78-5.93-4.16C214.94,173.7,217.15,175.25,216.77,179.53z"/>
	<path class="st0" d="M190.97,165.04c-2.53-0.59-4.98-1.38-7.19-2.8C186.7,161.83,189.25,162.35,190.97,165.04z"/>
	<path class="st0" d="M183.87,162.3c-2.51-0.22-4.84-1-7.06-2.16C179.66,159.24,182.07,159.78,183.87,162.3z"/>
	<path class="st0" d="M132.05,164.92c-1.63-0.03-3.27-0.06-4.9-0.09c1.03-1.22,2.42-1.58,3.94-1.6
		C131.41,163.8,131.73,164.36,132.05,164.92z"/>
	<path class="st0" d="M43.76,230.14c-1.12-0.32-1-1.18-0.89-2.04c1.71-0.92,3.45-0.81,5.19-0.08c2.15,0.53,2.54,0.15,2.01-1.98
		c2.29-0.13,4.25-4.2,6.87-0.59c1.31,1.67-0.08,3.88,1.11,5.57c0.08,0.21,0.17,0.43,0.21,0.65c0.02,0.1-0.08,0.23-0.12,0.34
		c-1.21,1.9-3.89,2.09-4.76,4.67c-0.7,2.08-2.9-0.57-4.32,0.4c-0.7,0.29-1.37,0.31-1.99-0.2C45.83,234.7,46.71,231.48,43.76,230.14z
		"/>
	<path class="st0" d="M56.05,226.04c-2-2.88-4,0.89-6,0.01c-2.82-1.63-3.99-3.49-0.82-5.95c-0.87,3.96-0.27,5.95,4.32,3.62
		c1.33-0.67,3.2-1.68,4.59,0.31C57.47,224.71,57.02,225.65,56.05,226.04z"/>
	<path class="st0" d="M48.05,228.03c-1.71,1.43-3.46,0.05-5.19,0.08c-1.95,0.14-3.88,0.1-5.71-0.76c2.5-2.2,6.44,0.97,8.65-2.31
		C46.79,225.85,48.03,226.49,48.05,228.03z"/>
	<path class="st0" d="M63.79,185.05c-1.48,2.16-3.33,3.89-5.74,4.98C58.54,186.73,61.1,185.81,63.79,185.05z"/>
	<path class="st0" d="M31.13,234.13c-0.04,2.71-1.73,4.06-4.03,4.91C27.78,236.85,27.37,233.77,31.13,234.13z"/>
	<path class="st0" d="M53.05,213.74c1.09,0.34,2.28,0.71,1.8,2.2c-0.44,1.34-1.67,1.21-2.79,1.1c1.61-1.44,1.61-1.44-2.22-2.74
		c0.13-0.42,0.39-0.73,0.79-0.92C51.5,213.07,52.3,213.23,53.05,213.74z"/>
	<path class="st0" d="M45.89,210.11c1.04,0.31,2.08,0.62,3.12,0.93c0.39,0.21,0.71,0.5,0.95,0.88c0.31,0.6,0.46,1.23,0.26,1.9
		c-0.13,0.16-0.26,0.32-0.4,0.48C48.87,212.57,45.42,213.18,45.89,210.11z"/>
	<path class="st0" d="M31.01,233.1c-0.67-0.42-0.93-0.8,0.11-1.05c0.31-0.36,0.67-0.43,1.07-0.16c0.19,0.41,0.16,0.81-0.08,1.19
		C31.75,233.39,31.38,233.4,31.01,233.1z"/>
	<path class="st0" d="M31.97,232.01c-0.28,0.04-0.57,0.05-0.85,0.04c0.34-0.87,1.05-1.02,1.87-0.96c0.27,0.21,0.37,0.42,0.3,0.65
		c-0.07,0.24-0.15,0.35-0.23,0.35l0.07-0.07C32.73,232.58,32.35,232.57,31.97,232.01z"/>
	<path class="st0" d="M31.01,233.1c0.29-0.09,0.58-0.14,0.88-0.16c0.2,0.12,0.4,0.25,0.6,0.37c-0.12,0.2-0.24,0.4-0.36,0.61
		c-0.36,0.02-0.72,0.05-1.09,0.07C31.03,233.69,31.02,233.4,31.01,233.1z"/>
	<path class="st0" d="M33.06,232.09c-0.02-0.34-0.05-0.67-0.07-1.01c0.34-0.02,0.69-0.05,1.03-0.07
		C34.19,231.81,33.65,231.97,33.06,232.09z"/>
	<path class="st0" d="M74.12,382.76c1.68-0.17,1.74,1.76,2.91,2.24c-1.27,1.56-2.72,0.83-3.76-0.07
		C72.11,383.93,74.07,383.6,74.12,382.76z"/>
	<path class="st0" d="M88.04,391.07c2.29,0.28,4.26,1.24,5.91,2.86C91.52,393.93,89.46,393.18,88.04,391.07z"/>
	<path class="st0" d="M97.03,394.98c1.69,0.34,3.4,0.64,4.67,1.97C99.86,396.98,97.97,397.1,97.03,394.98z"/>
	<path class="st0" d="M267.82,290.55c0.06-5.85,0.12-11.7,0.18-17.55c0.31-0.47,0.62-0.47,0.92,0.01c-0.47,6.69,1,13.45-0.8,20.08
		C267.21,292.34,267.47,291.45,267.82,290.55z"/>
	<path class="st0" d="M265.79,255.19c-1.18-2.58-1.67-5.33-1.95-8.13C267.41,249.07,265.49,252.39,265.79,255.19z"/>
	<path class="st0" d="M263.83,312.94c0.26-2.8,0.79-5.54,1.95-8.12C265.5,307.61,267.42,310.94,263.83,312.94z"/>
	<path class="st0" d="M271.93,294.99c-0.33,1.66-0.67,3.33-1,4.99c-0.65-0.15-1.85,2.69-1.86-0.16
		C269.06,297.96,270.07,296.08,271.93,294.99z"/>
	<path class="st0" d="M261.98,318.97c0.16-2.17,0.75-4.21,1.87-6.09C265.19,315.52,264.15,317.42,261.98,318.97z"/>
	<path class="st0" d="M263.86,247.12c-0.79-2.31-1.59-4.63-2.38-6.94c2.11,0.96,1.85,3.15,2.52,4.85
		C263.95,245.72,263.91,246.42,263.86,247.12z"/>
	<path class="st0" d="M268.92,273.01c-0.31,0-0.61-0.01-0.92-0.01c-0.06-1.22-0.12-2.44-0.18-3.66c-0.4-1.16-0.76-2.32,0.27-3.37
		C269.67,268.17,268.62,270.67,268.92,273.01z"/>
	<path class="st0" d="M266.86,261.02c-1.14-1.84-1-3.91-1.12-5.94C267.11,256.87,268.02,258.75,266.86,261.02z"/>
	<path class="st0" d="M268.09,265.98c-0.09,1.12-0.18,2.24-0.27,3.37c-0.95-2.36-0.98-4.84-0.89-7.33
		C268.35,263.03,267.76,264.64,268.09,265.98z"/>
	<path class="st0" d="M265.74,304.91c0.09-1.71-0.1-3.47,0.9-5.02C267.65,301.8,267.31,303.47,265.74,304.91z"/>
	<path class="st0" d="M259.95,324.97c-0.33-1.52,0.69-2.67,1.08-3.99C262.75,322.88,261.57,323.99,259.95,324.97z"/>
	<path class="st0" d="M267.82,290.55c0.1,0.85,0.2,1.69,0.29,2.54c-0.33,1.31,0.22,2.86-1.1,3.89
		C266.86,294.78,266.96,292.62,267.82,290.55z"/>
	<path class="st0" d="M251.58,341.84c0.55-1.37,0.93-2.85,2.36-3.65C253.98,339.94,253.66,341.46,251.58,341.84z"/>
	<path class="st0" d="M265.91,245.02c0.25-0.42-0.44-1.82,1.03-1C266.69,244.45,267.37,245.84,265.91,245.02z"/>
	<path class="st0" d="M223.85,374.91c1.24-1.16,2.11-2.85,4.1-2.99C227.06,373.57,225.94,374.91,223.85,374.91z"/>
	<path class="st0" d="M230.65,369.75c0.06-2.8,2.59-3.41,4.24-4.8c0.8,0.15,2.14,0.69,1.43,1.32
		C234.69,367.72,233.42,370.06,230.65,369.75z"/>
	<path class="st0" d="M244.45,352.77c0.74-0.98,1.47-1.95,2.21-2.93c1.47,0.77,0.99,1.79,0.34,2.82
		C246.21,353.92,245.31,352.91,244.45,352.77z"/>
	<path class="st0" d="M235.59,363.82c1.1-1.33,2.2-2.67,3.3-4C238.61,361.82,238.32,363.83,235.59,363.82z"/>
	<path class="st0" d="M241.01,357.95c-0.21-1.55,1.16-2.14,1.89-3.11C242.95,356.29,243.03,357.77,241.01,357.95z"/>
	<path class="st0" d="M247.76,347.89c0.69-1.06,1.39-2.13,2.08-3.19C249.25,345.83,251.75,348.96,247.76,347.89z"/>
	<path class="st0" d="M77.51,174.22c-0.33,1.96-1.63,2.71-3.48,2.79c-0.24-0.68-1.63-1.18-0.96-1.82
		C74.23,174.07,75.89,173.92,77.51,174.22z"/>
	<path class="st0" d="M86.21,170.13c-1.28,0.88-2.36,2.19-4.18,1.89C82.5,169.34,84.59,170.25,86.21,170.13z"/>
	<path class="st0" d="M161.14,173.14c-0.47,1.71-3.39,1.51-3.02,3.88c-1.06,4.89-4.01,1.86-6.33,1.52
		c-1.18,0.29-2.45-0.05-3.59,0.55c-3.08,1.5-6.14,2.17-9.17-0.09c-0.03-1.14,0.76-1.64,1.63-2.08c1.84-0.4,3.8-0.42,5.34-1.76
		c1.67-0.94,4.38-0.26,4.19-3.93c-0.06-1.24,3.75-1.67,5.92-2.12c0.33-0.37,0.71-0.47,1.16-0.25
		C159.17,169.74,161,170.67,161.14,173.14z"/>
	<path class="st0" d="M172.07,167.08c3.84-1.39,4.14-1.28,7.33,3.08c1.11-5.93,3.52-1.39,5.51-0.97c1.11,2.12-0.41,2.47-1.91,2.91
		c-2.27,0.67-4.6,0.38-6.89,0.46c-1.26,0.02-2.1-0.84-1.73-1.85C175.28,168.28,173,168.17,172.07,167.08z"/>
	<path class="st0" d="M49.1,211.8c0.16-0.28,0.14-0.53-0.09-0.76c1.01-1.66,2.03-3.32,3.04-4.98c0.62,0.51,0.73,1.29,0.89,2.27
		c0.98-1.46-0.08-2.39-0.18-3.44c1.32-2.38,2.59-4.79,5.17-6.1c0.52,0.52,0.61,1.11,0.29,1.77c-1.14,2.48-3.28,4.56-2.06,7.85
		c0.91,2.45-2.26,2.2-3.15,3.56C51.67,213.08,50.36,213.12,49.1,211.8z"/>
	<path class="st0" d="M139.03,179c3.6,2.48,6.57-1.46,9.98-0.97c0.88,0.45,1.47,1.06,1.3,2.15c-0.26,0.66-0.7,1.17-1.26,1.59
		c-1.78,0.94-3.34,2.2-4.85,3.51c-0.44,0.2-0.86,0.15-1.24-0.16C143.17,182.11,140.94,180.66,139.03,179z"/>
	<path class="st0" d="M161.14,173.14c-1.34-1.26-2.67-2.53-4.01-3.79c2.46-0.05,4.69-0.81,6.7-2.22c1.11,1.39,2.75,0.7,4.13,1.05
		c0.83,0.92,0.83,1.84,0,2.76c-0.32,0.04-0.65,0.09-0.97,0.13c-1.57,0.93-3.77,0.17-5.03,1.9
		C161.7,173.08,161.42,173.13,161.14,173.14z"/>
	<path class="st0" d="M159.98,288.97c-2.67,1.24-4.45-1.8-7.51-0.89c4.19-3.99,5.57-4.24,9.39-2.14
		C161.63,287.2,161.32,288.41,159.98,288.97z"/>
	<path class="st0" d="M49.05,237.09c4.07,0.18,5.1-5.09,9.08-5.07c-0.1,2.85-1.1,5.04-4.17,5.72
		C52.16,238.7,50.6,237.92,49.05,237.09z"/>
	<path class="st0" d="M157.17,184.08c-0.25,0.19-0.34,0.43-0.28,0.74c-2.86,1.2-5.67,2.6-8.9,2.47c-2.24-0.43-0.91-1.53-0.47-2.47
		c1.29-1.16,2.9-1.3,4.52-1.41c1.84,0.26,3.33-2.76,5.39-0.6C157.51,183.26,157.42,183.68,157.17,184.08z"/>
	<path class="st0" d="M61.26,207.06c-1.43-0.01-2.61-0.22-2.39-2.13c0.19-1.6,0.67-2.81,2.55-2.94c1.57-0.11,1.97,0.74,1.85,2.07
		C63.15,205.43,63.62,207.2,61.26,207.06z"/>
	<path class="st0" d="M174.89,171.85c3.52-0.19,7.58,1.63,10.01-2.66c2.37,1.29,0.57,2.66,0.08,4.01c-4.01-0.58-8.2,0.96-12.08-1.07
		c0.22-0.33,0.53-0.54,0.92-0.63C174.22,171.5,174.57,171.62,174.89,171.85z"/>
	<path class="st0" d="M174.03,171.79c-0.37,0.11-0.75,0.23-1.12,0.34c-1.65-0.4-3.3-0.79-4.94-1.19c0-0.92,0-1.84,0-2.76
		c1.29-0.05,2.58-0.11,3.86-0.16C174.6,168.09,173.64,170.33,174.03,171.79z"/>
	<path class="st0" d="M174.03,171.79c-0.73-1.26-1.47-2.51-2.2-3.77c-0.01-0.33,0.06-0.65,0.24-0.93c3.94-0.19,5.44,1.07,2.83,4.77
		c0,0-0.44,0.03-0.44,0.03S174.03,171.79,174.03,171.79z"/>
	<path class="st0" d="M52.78,204.89c0.14,0.08,0.29,0.14,0.43,0.23c1.6,0.96,2.26,2.32,1.46,4.08c-0.37,0.82-1.38,1.06-2.11,0.69
		c-1.92-0.97,0.28-2.62-0.5-3.83C52.3,205.66,52.54,205.28,52.78,204.89z"/>
	<path class="st0" d="M163.83,167.13c-1.43,3.17-3.99,2.94-6.7,2.22c-0.34-0.08-0.68-0.16-1.02-0.24
		C158.68,168.45,161.26,167.79,163.83,167.13z"/>
	<path class="st0" d="M177.01,280.08c-1.62,0.67-3.25,1.34-4.87,2.01c-1.22,0.34-1.52-0.21-1.27-1.3c1.4-1.25,3.26-1.29,4.91-1.88
		C176.96,278.5,177.21,279.05,177.01,280.08z"/>
	<path class="st0" d="M183.79,301.65c0.1,1.57,0.2,3.13,0.29,4.7c-0.74,1.06-1.47,2.13-3.02,1.81c-0.47-0.4-0.51-0.83-0.12-1.31
		c0.35-0.66,0.69-1.31,1.04-1.97C183.1,304.1,181.67,301.88,183.79,301.65z"/>
	<path class="st0" d="M144.2,226.19c0.89,0.86,2.27,1.35,2.21,2.93c-2.54,1.25-3.65-1.38-5.5-2.02
		C142.01,226.8,143.1,226.49,144.2,226.19z"/>
	<path class="st0" d="M183.79,301.65c-0.88,0.92-0.18,2.73-1.81,3.24c-0.26-1.22-0.52-2.44-0.79-3.65
		c-0.45-2.01,0.73-1.61,1.87-1.27c0.52-0.27,0.78-0.11,0.76,0.48c-0.08,0.27-0.19,0.54-0.22,0.82
		C183.58,301.38,183.72,301.52,183.79,301.65z"/>
	<path class="st0" d="M180.94,306.85c0.04,0.44,0.08,0.87,0.12,1.31c-1.08,0.87-2.17,1.75-3.25,2.62c-0.3-0.23-0.6-0.46-0.89-0.69
		c0.36-0.97,0.71-1.95,1.07-2.92C178.97,307.07,179.95,306.96,180.94,306.85z"/>
	<path class="st0" d="M159.98,288.97c0.63-1.01,1.25-2.02,1.88-3.03c0.43,1.41,2.19,0.55,2.96,1.85
		C163.55,289.56,161.55,288.56,159.98,288.97z"/>
	<path class="st0" d="M178.88,277.92c2.33-1.2,4.25-0.51,6.2,1.08c-1.66,1.99-2.81-0.27-4.11-0.02
		C180.39,278.41,179.29,278.84,178.88,277.92z"/>
	<path class="st0" d="M147.92,185.09c0.27,0.73-1.81,1.52,0.07,2.2c-2.61,1.44-3.32-1.52-5.03-2.16c0.39-0.04,0.78-0.08,1.17-0.12
		C145.41,184.02,146.68,183.88,147.92,185.09z"/>
	<path class="st0" d="M170.87,280.78c0.42,0.43,0.85,0.87,1.27,1.3c-0.28,0.34-0.56,0.69-0.84,1.03c-1.74,1.39-3.49,2.53-5.27,0.05
		C167.65,282.38,169.26,281.58,170.87,280.78z"/>
	<path class="st0" d="M166.04,283.17c1.77,1.54,3.52,0.35,5.27-0.05c-1.78,3.5-3.94,1.57-6.04,0.42c0.1-0.1,0.17-0.24,0.29-0.29
		C165.7,283.19,165.88,283.19,166.04,283.17z"/>
	<path class="st0" d="M178.88,277.92c0.7,0.35,1.39,0.71,2.09,1.06c-1.32,0.36-2.64,0.73-3.95,1.09c-0.41-0.39-0.82-0.79-1.23-1.18
		C176.57,277.81,177.78,278.03,178.88,277.92z"/>
	<path class="st0" d="M183.82,300.44c-0.27-0.14-0.52-0.29-0.76-0.48c0.14-2.43-0.82-5.35,2.8-6.2
		C184.62,295.82,183.66,297.96,183.82,300.44z"/>
	<path class="st0" d="M56.05,226.04c0.41-0.97,1.11-1.64,2.09-2.02c-0.03,2.34-0.07,4.67-0.1,7.01
		C56.17,229.84,57.9,227.23,56.05,226.04z"/>
	<path class="st0" d="M49.1,211.8c1.31,0.06,2.62,0.11,3.92,0.17c0.01,0.59,0.01,1.18,0.02,1.77c-0.94,0.03-1.88,0.05-2.82,0.08
		C49.85,213.14,49.48,212.47,49.1,211.8z"/>
	<path class="st0" d="M192.85,292.62c-1.99,2.6-4.67,1.04-7.07,1.19C187.95,292.34,190.6,293.69,192.85,292.62z"/>
	<path class="st0" d="M58.23,200.55c-0.1-0.59-0.19-1.18-0.29-1.77c0.38-0.67,0.6-1.6,1.17-1.95c0.65-0.4,1.05,0.31,1.13,1.02
		C60.42,199.4,59.83,200.34,58.23,200.55z"/>
	<path class="st0" d="M148.07,288.99c-0.18-0.16-0.73-0.41-0.77-0.74c-0.1-0.85,0.65-1.09,1.29-1.12c0.67-0.03,1.38,0.24,1.24,1.11
		C149.7,289.08,148.97,289.06,148.07,288.99z"/>
	<path class="st0" d="M146,175.16c-1.23,2.25-3.27,2.04-5.34,1.76C142.44,176.33,144.22,175.75,146,175.16z"/>
	<path class="st0" d="M95.67,390.92c-1.03,0.69-2.52,0.02-2.49-0.38c0.09-1.04,1.18-0.5,1.86-0.36
		C95.28,390.22,95.44,390.63,95.67,390.92z"/>
	<path class="st0" d="M192.68,168.03c0.46,0.31,1.14,0.54,1.43,1.01c0.36,0.59-0.24,0.85-0.71,0.66c-0.57-0.24-1.05-0.69-1.56-1.05
		C192.06,168.48,192.28,168.32,192.68,168.03z"/>
	<path class="st0" d="M235.3,271.29c-0.82,1.88-0.63,4.3-3.11,5.64c-0.4-2.7-0.24-4.95,1.84-6.73
		C234.59,270.4,235.27,270.46,235.3,271.29z"/>
	<path class="st0" d="M190.14,300.51c1.18-3.59,4.1-3.59,7.09-3.42C194.9,298.29,192.12,298.58,190.14,300.51z"/>
	<path class="st0" d="M235.3,271.29c-0.42-0.36-0.85-0.73-1.27-1.09c1.02-0.5,0.49-1.49,0.7-2.24c0.43-0.3,0.85-0.61,1.28-0.91
		c1.29,0.69,0.8,1.95,0.97,3.01C236.42,270.47,235.86,270.88,235.3,271.29z"/>
	<path class="st0" d="M157.05,183.23c-1.68,0.61-3.36,1.22-5.04,1.83c-0.42-1.89-4.8-0.88-3.15-4.3c0.33-0.25,0.66-0.5,1-0.75
		c0.53-0.85,1.34-1.4,2.14-1.95c-0.47-1.3,0.41-2.92,1.14-1.53c1.79,3.4,3.27,1.27,4.98,0.48c0.61,0.4,1.22,0.79,1.83,1.19
		c0.82,1.36,0.59,2.75,0.16,4.16C159.18,182.96,158.2,183.42,157.05,183.23z"/>
	<path class="st0" d="M157.05,183.23c0.98-0.4,1.95-0.8,2.93-1.2c2.34-1.85,4.66,0.87,7,0.03c1.47,2.94-1.22,2.79-2.18,2.18
		c-2.66-1.7-5.1-0.28-7.63-0.16C157.09,183.8,157.05,183.52,157.05,183.23z"/>
	<path class="st0" d="M166.98,182.06c-2.35,2.95-4.66-1.37-7-0.03c-1.1-1.27-0.28-2.55-0.03-3.83
		C161.14,181.6,164.85,180.39,166.98,182.06z"/>
	<path class="st0" d="M176.9,179.26c-0.66-1.14-3.4-0.62-2.57-2.71c0.5-1.27,1.86-2.4,3.65-1.53c1.14,1.61,0.34,2.7-0.97,3.66
		C176.87,178.84,176.83,179.04,176.9,179.26z"/>
	<path class="st0" d="M177.02,178.67c0.32-1.22,0.64-2.44,0.97-3.66c1.75,0.23,1.93,2.07,3.03,2.97
		C179.91,179.56,178.42,178.88,177.02,178.67z"/>
	<path class="st0" d="M161.96,172.97c0.34-4.17,3.44-1.05,5.03-1.9C165.52,172.23,163.78,172.71,161.96,172.97z"/>
	<path class="st0" d="M184.98,174.07c-0.91,0.75-1.48,2.03-2.93,1.9c-0.14-0.01-0.4-0.62-0.32-0.86c0.56-1.85,2.15-0.7,3.24-1.05
		C184.96,174.05,184.98,174.07,184.98,174.07z"/>
	<path class="st0" d="M43.76,230.14c3.63,1.01,3.06,4.07,3.3,6.74C44.58,235.31,46.25,231.71,43.76,230.14z"/>
	<path class="st0" d="M31.97,232.01c0.39,0.01,0.77,0.01,1.16,0.02c-0.07,0.35-0.14,0.7-0.21,1.05c-0.21,0.02-0.41,0.04-0.62,0.06
		c0,0-0.41-0.2-0.41-0.2C32.04,232.64,32.07,232.33,31.97,232.01z"/>
	<path class="st0" d="M32.3,233.14c0.2-0.05,0.41-0.07,0.62-0.06c0.13,0.65-0.15,0.92-0.79,0.84
		C32.09,233.64,32.15,233.38,32.3,233.14z"/>
	<path class="st0" d="M152,178.06c-0.43,0.97-0.97,1.81-2.14,1.95c-0.28-0.66-0.56-1.32-0.85-1.98
		C150.01,176.97,151,178.35,152,178.06z"/>
	<path class="st0" d="M148.86,180.76c-0.27,2.4,3.3,1.98,3.15,4.3c-1.37-0.94-2.73-0.04-4.09,0.03c-1.27-0.03-2.53-0.05-3.8-0.08
		C143.94,181.62,147.07,181.94,148.86,180.76z"/>
</g>
</svg>
