<svg xmlns="http://www.w3.org/2000/svg" viewBox="0 0 267.24 260.62"><defs><style>.cls-1{fill:none;stroke:#178c6e;stroke-miterlimit:10;}.cls-2,.cls-3{fill:#137d62;}.cls-3{font-size:59.56px;font-family:Krungthep;}</style></defs><g id="Layer_2" data-name="Layer 2"><line class="cls-1" x1="207.84" y1="234.95" x2="168.79" y2="234.83"/></g><g id="Layer_3" data-name="Layer 3"><line class="cls-1" x1="42.97" y1="49.83" x2="107.96" y2="84.06"/></g><g id="triangles"><line class="cls-1" x1="75.47" y1="80.87" x2="2.21" y2="86.6"/><path class="cls-1" d="M327.3,378.34" transform="translate(-116.38 -130.55)"/></g><g id="erased"><polyline class="cls-2" points="75.47 80.87 102.53 140.72 83.39 130.4 60.35 173.83 114.4 173.79 115.38 234.78 56.78 234.71 0 143.28 21.32 96.91 2.21 86.6"/><polyline class="cls-2" points="65.89 0 42.97 49.83 107.96 84.06 130.42 41.73 149.7 73.79 133.99 83.44 199.35 90.04 231.12 23.78 213.37 34.68 195.6 0.02 65.89 0.33"/><polyline class="cls-2" points="207.84 234.95 267.24 138.74 239.95 83.82 177.01 120.06 209.77 173.7 209.77 173.69 167.61 173.15 167.1 146.66 128.28 199.64 169.28 260.62 168.79 234.83"/><text class="cls-3" transform="translate(108.14 147.88) scale(1.3 1)">3</text></g></svg>